<svg width="998" height="470" viewBox="0 0 998 470" fill="none" xmlns="http://www.w3.org/2000/svg">
<path d="M992 235L996.685 236.746L997.336 235L996.685 233.254L992 235ZM822.5 10.5C837.428 10.5 853.463 19.0522 869.933 34.2736C886.302 49.4014 902.451 70.5184 917.544 94.246C947.714 141.678 973.145 198.713 987.315 236.746L996.685 233.254C982.355 194.787 956.636 137.072 925.981 88.879C910.662 64.7941 893.979 42.8798 876.72 26.9295C859.562 11.0728 841.172 0.5 822.5 0.5V10.5ZM89 10.5H822.5V0.5H89V10.5ZM10 235C10 188.709 10.0011 151.365 11.3078 121.311C12.617 91.1981 15.2268 68.8251 20.2804 52.3405C25.2884 36.0049 32.561 25.8785 43.0033 19.6352C53.6534 13.2677 68.3098 10.5 89 10.5V0.5C67.6902 0.5 50.8466 3.29479 37.8717 11.0523C24.689 18.934 16.2116 31.4951 10.7196 49.4095C5.27325 67.1749 2.63297 90.6144 1.31722 120.877C-0.00107191 151.197 0 188.791 0 235H10ZM0 235C0 281.209 -0.00107191 318.803 1.31722 349.123C2.63297 379.386 5.27325 402.825 10.7196 420.591C16.2116 438.505 24.689 451.066 37.8717 458.948C50.8466 466.705 67.6902 469.5 89 469.5V459.5C68.3098 459.5 53.6534 456.732 43.0033 450.365C32.561 444.121 25.2884 433.995 20.2804 417.659C15.2268 401.175 12.617 378.802 11.3078 348.689C10.0011 318.635 10 281.291 10 235H0ZM89 469.5H822.5V459.5H89V469.5ZM822.5 469.5C841.172 469.5 859.562 458.927 876.72 443.07C893.979 427.12 910.662 405.206 925.981 381.121C956.636 332.928 982.355 275.213 996.685 236.746L987.315 233.254C973.145 271.287 947.714 328.322 917.544 375.754C902.451 399.482 886.302 420.599 869.933 435.726C853.463 450.948 837.428 459.5 822.5 459.5V469.5Z" fill="white"/>
</svg>
