<svg width="40" height="40" viewBox="0 0 40 40" fill="none" xmlns="http://www.w3.org/2000/svg">
<g clip-path="url(#clip0_11_2)">
<path d="M36.5 28.5V11.5C36.5 7.08172 32.9183 3.5 28.5 3.5L11.5 3.5C7.08172 3.5 3.5 7.08172 3.5 11.5V28.5C3.5 32.9183 7.08172 36.5 11.5 36.5H28.5C32.9183 36.5 36.5 32.9183 36.5 28.5Z" fill="#E5E8EB"/>
<path d="M20.866 27.425L27.708 15.575C28.093 14.908 27.612 14.075 26.842 14.075H13.159C12.389 14.075 11.908 14.908 12.293 15.575L19.135 27.425C19.52 28.092 20.482 28.092 20.867 27.425H20.866Z" fill="#313D4C"/>
</g>
<defs>
<clipPath id="clip0_11_2">
<rect width="40" height="40" fill="white"/>
</clipPath>
</defs>
</svg>
