<svg width="40" height="40" viewBox="0 0 40 40" fill="none" xmlns="http://www.w3.org/2000/svg">
<g clip-path="url(#clip0_13_2)">
<path d="M34.75 20C34.75 18.205 36.205 16.75 38 16.75V8.546C38 7.642 37.267 6.91 36.364 6.91H3.636C2.732 6.91 2 7.643 2 8.546V16.75C3.795 16.75 5.25 18.205 5.25 20C5.25 21.795 3.795 23.25 2 23.25V31.454C2 32.358 2.733 33.09 3.636 33.09H36.363C37.267 33.09 37.999 32.357 37.999 31.454V23.25C36.204 23.25 34.75 21.795 34.75 20Z" fill="#FFCD00"/>
<path d="M25.506 17.945L21.701 17.392L20 13.945L18.299 17.392L14.494 17.945L17.247 20.629L16.597 24.418L20 22.629L23.403 24.418L22.753 20.629L25.506 17.945Z" fill="#FFAA00"/>
</g>
<defs>
<clipPath id="clip0_13_2">
<rect width="40" height="40" fill="white"/>
</clipPath>
</defs>
</svg>
