<svg width="40" height="40" viewBox="0 0 40 40" fill="none" xmlns="http://www.w3.org/2000/svg">
<g clip-path="url(#clip0_11_48)">
<path d="M28.5 3.5H11.5C7.08172 3.5 3.5 7.08172 3.5 11.5V28.5C3.5 32.9183 7.08172 36.5 11.5 36.5H28.5C32.9183 36.5 36.5 32.9183 36.5 28.5V11.5C36.5 7.08172 32.9183 3.5 28.5 3.5Z" fill="#E5E8EB"/>
<path d="M29.175 19.116L20.896 10.837C20.401 10.342 19.599 10.342 19.104 10.837L10.825 19.116C10.413 19.528 10.705 20.232 11.287 20.232H15.336C15.738 20.232 16.064 20.558 16.064 20.96V28.917C16.064 29.258 16.341 29.535 16.682 29.535H23.319C23.66 29.535 23.937 29.258 23.937 28.917V20.96C23.937 20.558 24.263 20.232 24.665 20.232H28.714C29.296 20.232 29.588 19.528 29.176 19.116H29.175Z" fill="#313D4C"/>
</g>
<defs>
<clipPath id="clip0_11_48">
<rect width="40" height="40" fill="white"/>
</clipPath>
</defs>
</svg>
