<svg width="40" height="40" viewBox="0 0 40 40" fill="none" xmlns="http://www.w3.org/2000/svg">
<g clip-path="url(#clip0_1_17)">
<path d="M34.167 9.93399H5.833C3.992 9.93399 2.5 11.426 2.5 13.267V31.6C2.5 33.441 3.992 34.933 5.833 34.933H34.166C36.007 34.933 37.499 33.44 37.499 31.6V13.267C37.499 11.426 36.008 9.93399 34.167 9.93399Z" fill="#86584A"/>
<path d="M28.167 9.93399H25.167V6.75699C25.167 6.65199 25.082 6.56699 24.977 6.56699H15.024C14.919 6.56699 14.834 6.65199 14.834 6.75699V9.93399H11.834V6.75699C11.834 4.99799 13.265 3.56699 15.024 3.56699H24.977C26.736 3.56699 28.167 4.99799 28.167 6.75699V9.93399Z" fill="#4E5968"/>
<path d="M11.752 9.93298H8.99V34.933H11.752V9.93298Z" fill="#5E403B"/>
<path d="M31.01 9.93298H28.248V34.933H31.01V9.93298Z" fill="#5E403B"/>
</g>
<defs>
<clipPath id="clip0_1_17">
<rect width="40" height="40" fill="white"/>
</clipPath>
</defs>
</svg>
