<svg width="40" height="40" viewBox="0 0 40 40" fill="none" xmlns="http://www.w3.org/2000/svg">
<g clip-path="url(#clip0_1_256)">
<path d="M32.632 31.545H31.174V28.506H32.632C33.448 28.506 34.112 27.842 34.112 27.026V19.394C34.112 18.578 33.448 17.914 32.632 17.914H31.174V14.875H32.632C35.124 14.875 37.152 16.902 37.152 19.395V27.027C37.152 29.519 35.125 31.547 32.632 31.547V31.545Z" fill="#FFAA00"/>
<path d="M5.851 10.271H31.174V32.218C31.174 35.013 28.905 37.283 26.109 37.283H10.915C8.12 37.283 5.85 35.014 5.85 32.218L5.851 10.271Z" fill="#FFAA00"/>
<path d="M18.513 30.723C17.814 30.723 17.247 30.156 17.247 29.456V17.098C17.247 16.399 17.814 15.831 18.513 15.831C19.212 15.831 19.779 16.398 19.779 17.098V29.456C19.779 30.155 19.212 30.723 18.513 30.723Z" fill="#F77F00"/>
<path d="M24.591 30.723C23.892 30.723 23.325 30.156 23.325 29.456V17.098C23.325 16.399 23.892 15.831 24.591 15.831C25.29 15.831 25.857 16.398 25.857 17.098V29.456C25.857 30.155 25.29 30.723 24.591 30.723Z" fill="#F77F00"/>
<path d="M12.436 30.723C11.737 30.723 11.17 30.156 11.17 29.456V22.21C11.17 21.511 11.737 20.943 12.436 20.943C13.135 20.943 13.702 21.51 13.702 22.21V29.456C13.702 30.155 13.135 30.723 12.436 30.723Z" fill="#F77F00"/>
<path d="M28.658 2.717H8.368C6.159 2.717 4.368 4.508 4.368 6.717V13.717C4.368 15.794 5.923 17.656 7.998 17.765C10.21 17.881 12.041 16.121 12.041 13.934C12.041 12.519 13.188 11.372 14.603 11.372H30.659C31.764 11.372 32.659 10.477 32.659 9.372V6.717C32.659 4.508 30.867 2.717 28.658 2.717Z" fill="#EBEBEB"/>
</g>
<defs>
<clipPath id="clip0_1_256">
<rect width="40" height="40" fill="white"/>
</clipPath>
</defs>
</svg>
