<svg width="40" height="40" viewBox="0 0 40 40" fill="none" xmlns="http://www.w3.org/2000/svg">
<g clip-path="url(#clip0_1_8)">
<path d="M28.5 3.5H11.5C7.08172 3.5 3.5 7.08172 3.5 11.5V28.5C3.5 32.9183 7.08172 36.5 11.5 36.5H28.5C32.9183 36.5 36.5 32.9183 36.5 28.5V11.5C36.5 7.08172 32.9183 3.5 28.5 3.5Z" fill="#E5E8EB"/>
<path d="M14.186 18.35V11.595L11.795 13.014V11.139L14.611 9.43799H16.12V18.35H14.187H14.186Z" fill="#3182F6"/>
<path d="M21.762 12.297C21.809 10.67 23.271 9.409 25.063 9.409C27.197 9.409 28.354 10.611 28.354 12.18C28.354 13.382 27.682 14.195 26.751 15.091L24.959 16.8H28.389V18.38H22.021V17.213L25.277 14.302C26.208 13.383 26.409 12.935 26.409 12.31C26.409 11.438 25.747 11.001 25.052 11.001C24.344 11.001 23.732 11.544 23.732 12.31L21.763 12.298L21.762 12.297Z" fill="#3182F6"/>
<path d="M13.375 27.891C13.528 28.552 14.035 28.987 14.778 28.987C15.65 28.987 16.11 28.516 16.122 27.844C16.134 27.078 15.757 26.677 14.696 26.677H13.764V25.074H14.66C15.438 25.074 15.874 24.637 15.874 24.001C15.874 23.388 15.485 22.952 14.742 22.952C13.999 22.952 13.516 23.424 13.445 24.048H11.406C11.524 22.505 12.962 21.349 14.742 21.349C16.522 21.349 17.854 22.327 17.854 23.801C17.854 24.779 17.288 25.581 16.192 25.793C17.394 25.946 18.102 26.759 18.102 27.844C18.102 29.459 16.711 30.591 14.778 30.591C12.974 30.591 11.489 29.519 11.336 27.891H13.376H13.375Z" fill="#3182F6"/>
<path d="M21.486 28.752V27.349L25.176 21.502H27.569V27.29H28.665V28.752H27.569V30.438H25.683V28.752H21.486ZM23.419 27.29H25.682V23.671L23.419 27.29Z" fill="#3182F6"/>
</g>
<defs>
<clipPath id="clip0_1_8">
<rect width="40" height="40" fill="white"/>
</clipPath>
</defs>
</svg>
