<svg width="40" height="40" viewBox="0 0 40 40" fill="none" xmlns="http://www.w3.org/2000/svg">
<g clip-path="url(#clip0_1_265)">
<path d="M20 2.822C10.335 2.822 2.5 9.836 2.5 18.488C2.5 21.942 3.759 25.127 5.878 27.715C6.654 28.663 7.009 29.886 6.775 31.088L5.82 35.985C5.66 36.807 6.52 37.45 7.263 37.063L13.076 34.037C13.897 33.61 14.842 33.471 15.745 33.676C17.107 33.985 18.531 34.154 20 34.154C29.665 34.154 37.5 27.14 37.5 18.488C37.5 9.836 29.665 2.822 20 2.822Z" fill="#E2E5E8"/>
<path d="M12.754 17.03C13.836 17.03 14.712 17.907 14.712 18.988C14.712 19.507 14.506 20.005 14.138 20.373C13.771 20.74 13.273 20.947 12.753 20.947C11.671 20.947 10.795 20.07 10.795 18.989C10.795 17.908 11.672 17.031 12.753 17.031L12.754 17.03Z" fill="#333D4B"/>
<path d="M27.246 20.946C28.3274 20.946 29.204 20.0694 29.204 18.988C29.204 17.9066 28.3274 17.03 27.246 17.03C26.1646 17.03 25.288 17.9066 25.288 18.988C25.288 20.0694 26.1646 20.946 27.246 20.946Z" fill="#333D4B"/>
<path d="M20 20.946C21.0814 20.946 21.958 20.0694 21.958 18.988C21.958 17.9066 21.0814 17.03 20 17.03C18.9186 17.03 18.042 17.9066 18.042 18.988C18.042 20.0694 18.9186 20.946 20 20.946Z" fill="#333D4B"/>
</g>
<defs>
<clipPath id="clip0_1_265">
<rect width="40" height="40" fill="white"/>
</clipPath>
</defs>
</svg>
