<svg width="40" height="40" viewBox="0 0 40 40" fill="none" xmlns="http://www.w3.org/2000/svg">
<g clip-path="url(#clip0_11_52)">
<path d="M29.449 3.104L27.729 20.5H24.868L23.318 11.014C22.929 7.311 25.043 3.8 28.497 2.41C28.973 2.218 29.486 2.592 29.449 3.104Z" fill="#D5D5D5"/>
<path d="M13.286 20.5L12.132 35.817C12.109 36.817 12.913 37.641 13.914 37.641H15.516C16.517 37.641 17.321 36.818 17.298 35.817L16.147 20.5H13.286Z" fill="#767676"/>
<path d="M24.869 20.5L23.715 35.817C23.692 36.817 24.496 37.641 25.497 37.641H27.099C28.1 37.641 28.904 36.818 28.881 35.817L27.73 20.5H24.869Z" fill="#767676"/>
<path d="M16.093 19.742C16.101 18.664 16.944 18.362 16.944 18.362L16.939 18.357C16.974 18.34 17.012 18.331 17.047 18.313L19.155 17.565C20.308 16.976 21.009 15.511 20.86 14.003L19.373 3.208C19.306 2.722 18.89 2.359 18.399 2.359C17.851 2.359 17.409 2.807 17.416 3.354L17.532 12.661C17.532 13.007 17.363 13.318 17.1 13.452C16.925 13.542 16.725 13.542 16.551 13.452C16.289 13.318 16.119 13.008 16.119 12.661L15.961 3.325C15.952 2.789 15.515 2.359 14.978 2.359H14.446C13.91 2.359 13.472 2.789 13.463 3.325L13.305 12.661C13.305 13.007 13.136 13.318 12.872 13.452C12.699 13.542 12.498 13.542 12.323 13.452C12.061 13.318 11.891 13.008 11.891 12.661L12.008 3.354C12.015 2.806 11.573 2.359 11.025 2.359C10.534 2.359 10.118 2.721 10.051 3.208L8.564 14.003C8.415 15.511 9.117 16.975 10.269 17.565L12.377 18.313C12.411 18.33 12.447 18.339 12.482 18.355L12.476 18.361C12.476 18.361 13.358 18.67 13.331 19.801L13.282 20.499H16.143L16.09 19.741L16.093 19.742Z" fill="#D5D5D5"/>
</g>
<defs>
<clipPath id="clip0_11_52">
<rect width="40" height="40" fill="white"/>
</clipPath>
</defs>
</svg>
