<svg width="40" height="40" viewBox="0 0 40 40" fill="none" xmlns="http://www.w3.org/2000/svg">
<g clip-path="url(#clip0_11_26)">
<path d="M35 37C34.488 37 33.977 36.805 33.586 36.414L24.605 27.433C23.824 26.652 23.824 25.386 24.605 24.605C25.386 23.824 26.652 23.824 27.433 24.605L36.414 33.586C37.195 34.367 37.195 35.633 36.414 36.414C36.023 36.805 35.512 37 35 37Z" fill="#4E5968"/>
<path d="M29.63 17.315C29.63 10.525 24.106 5 17.315 5C13.92 5 10.841 6.381 8.611 8.611L26.018 26.019C28.248 23.789 29.63 20.71 29.63 17.315Z" fill="#E5E9EE"/>
<path d="M26.019 26.019L8.611 8.611C6.381 10.841 5 13.92 5 17.315C5 24.105 10.525 29.63 17.315 29.63C20.71 29.63 23.789 28.249 26.019 26.019Z" fill="#F0F3F6"/>
<path d="M17.314 31.129C9.697 31.129 3.5 24.932 3.5 17.315C3.5 9.698 9.697 3.5 17.314 3.5C24.931 3.5 31.129 9.697 31.129 17.315C31.129 24.933 24.932 31.129 17.314 31.129ZM17.314 6.5C11.351 6.5 6.5 11.352 6.5 17.315C6.5 23.278 11.352 28.129 17.314 28.129C23.276 28.129 28.129 23.277 28.129 17.315C28.129 11.353 23.277 6.5 17.314 6.5Z" fill="#A3ADB7"/>
</g>
<defs>
<clipPath id="clip0_11_26">
<rect width="40" height="40" fill="white"/>
</clipPath>
</defs>
</svg>
