<svg width="40" height="40" viewBox="0 0 40 40" fill="none" xmlns="http://www.w3.org/2000/svg">
<g clip-path="url(#clip0_1_2)">
<path d="M32.567 3.849H7.433C6.365 3.849 5.5 4.715 5.5 5.782V34.065C5.5 35.217 6.434 36.15 7.585 36.15H32.414C33.566 36.15 34.499 35.216 34.499 34.065V5.782C34.499 4.714 33.634 3.849 32.567 3.849Z" fill="#D0D5DA"/>
<path d="M18.559 30.937H21.441C22.084 30.937 22.607 31.459 22.607 32.103V36.151H17.394V32.103C17.394 31.46 17.915 30.937 18.559 30.937Z" fill="#6B7683"/>
<path d="M14.683 24.388C14.683 24.655 14.467 24.871 14.2 24.871H12.267C12 24.871 11.784 24.655 11.784 24.388V22.455C11.784 22.188 12 21.972 12.267 21.972H14.2C14.467 21.972 14.683 22.188 14.683 22.455V24.388ZM14.683 17.621C14.683 17.888 14.467 18.104 14.2 18.104H12.267C12 18.104 11.784 17.888 11.784 17.621V15.688C11.784 15.421 12 15.205 12.267 15.205H14.2C14.467 15.205 14.683 15.421 14.683 15.688V17.621ZM14.683 10.854C14.683 11.121 14.467 11.337 14.2 11.337H12.267C12 11.337 11.784 11.121 11.784 10.854V8.921C11.784 8.654 12 8.438 12.267 8.438H14.2C14.467 8.438 14.683 8.654 14.683 8.921V10.854ZM21.45 24.387C21.45 24.654 21.234 24.87 20.967 24.87H19.034C18.767 24.87 18.551 24.654 18.551 24.387V22.454C18.551 22.187 18.767 21.971 19.034 21.971H20.967C21.234 21.971 21.45 22.187 21.45 22.454V24.387ZM21.45 17.62C21.45 17.887 21.234 18.103 20.967 18.103H19.034C18.767 18.103 18.551 17.887 18.551 17.62V15.687C18.551 15.42 18.767 15.204 19.034 15.204H20.967C21.234 15.204 21.45 15.42 21.45 15.687V17.62ZM21.45 10.853C21.45 11.12 21.234 11.336 20.967 11.336H19.034C18.767 11.336 18.551 11.12 18.551 10.853V8.92C18.551 8.653 18.767 8.43701 19.034 8.43701H20.967C21.234 8.43701 21.45 8.653 21.45 8.92V10.853ZM28.217 24.386C28.217 24.653 28.001 24.869 27.734 24.869H25.801C25.534 24.869 25.318 24.653 25.318 24.386V22.453C25.318 22.186 25.534 21.97 25.801 21.97H27.734C28.001 21.97 28.217 22.186 28.217 22.453V24.386ZM28.217 17.619C28.217 17.886 28.001 18.102 27.734 18.102H25.801C25.534 18.102 25.318 17.886 25.318 17.619V15.686C25.318 15.419 25.534 15.203 25.801 15.203H27.734C28.001 15.203 28.217 15.419 28.217 15.686V17.619ZM28.217 10.852C28.217 11.119 28.001 11.335 27.734 11.335H25.801C25.534 11.335 25.318 11.119 25.318 10.852V8.919C25.318 8.652 25.534 8.436 25.801 8.436H27.734C28.001 8.436 28.217 8.652 28.217 8.919V10.852Z" fill="#8A94A0"/>
</g>
<defs>
<clipPath id="clip0_1_2">
<rect width="40" height="40" fill="white"/>
</clipPath>
</defs>
</svg>
