<svg width="34" height="34" viewBox="0 0 34 34" fill="none" xmlns="http://www.w3.org/2000/svg">
<g clip-path="url(#clip0_11_43)">
<path d="M17 29.0572C15.8261 29.0572 14.875 28.1061 14.875 26.9322V7.06775C14.875 5.8939 15.8261 4.94275 17 4.94275C18.1739 4.94275 19.125 5.8939 19.125 7.06775V26.9322C19.125 28.1061 18.1739 29.0572 17 29.0572Z" fill="#313D4C"/>
<path d="M26.9322 19.125H7.06775C5.8939 19.125 4.94275 18.1739 4.94275 17C4.94275 15.8261 5.8939 14.875 7.06775 14.875H26.9322C28.1061 14.875 29.0572 15.8261 29.0572 17C29.0572 18.1739 28.1061 19.125 26.9322 19.125Z" fill="#313D4C"/>
</g>
<defs>
<clipPath id="clip0_11_43">
<rect width="34" height="34" fill="white"/>
</clipPath>
</defs>
</svg>
