<svg width="40" height="40" viewBox="0 0 40 40" fill="none" xmlns="http://www.w3.org/2000/svg">
<g clip-path="url(#clip0_1_211)">
<path d="M10.607 26.552C10.569 26.751 10.546 26.954 10.546 27.159C10.546 30.186 14.782 32.639 20.008 32.639C25.234 32.639 29.47 30.185 29.47 27.159C29.47 26.953 29.447 26.751 29.409 26.552C26.891 28.744 23.609 30.082 20.008 30.082C16.407 30.082 13.124 28.745 10.607 26.552Z" fill="#AFB7C0"/>
<path d="M20.008 8.195C14.178 8.195 9.313 10.583 8.164 13.762C10.291 16.164 14.853 17.873 20.008 17.873C25.163 17.873 29.726 16.164 31.852 13.762C31.787 13.584 31.706 13.409 31.618 13.235C30.147 10.323 25.51 8.194 20.007 8.194L20.008 8.195Z" fill="#6E4944"/>
<path d="M33.13 10.79C33.13 11.14 33.06 11.48 32.96 11.82C32.77 12.5 32.39 13.15 31.85 13.76C31.79 13.58 31.71 13.41 31.62 13.24C30.15 10.32 25.51 8.2 20.01 8.2C14.18 8.2 9.31 10.58 8.16 13.76C7.36 12.85 6.89 11.84 6.89 10.79C6.89 6.95 12.9 3.7 20.01 3.7C27.12 3.7 33.13 6.95 33.13 10.79Z" fill="#D0D5DA"/>
<path d="M34.34 11.87V10.99L34.32 11.05C34.29 11.53 34.21 12 34.05 12.46C33.96 12.73 33.84 13 33.7 13.26C31.88 16.64 26.44 19.09 20.01 19.09C13.58 19.09 8.13 16.64 6.32 13.26C6.18 13 6.06 12.73 5.96 12.46C5.8 12 5.72 11.53 5.69 11.05L5.67 10.99V15.75C5.67 17.38 5.96 18.94 6.46 20.41C7.29 22.81 8.73 24.92 10.61 26.55C13.13 28.74 16.41 30.08 20.01 30.08C23.61 30.08 26.89 28.74 29.41 26.55C30.62 25.49 31.66 24.23 32.46 22.82H33.62C34.41 22.82 35.16 22.65 35.84 22.35C37.77 21.5 39.13 19.57 39.13 17.32C39.13 14.53 37.04 12.23 34.34 11.87ZM33.62 20.43H33.54C33.5467 20.4233 33.55 20.4167 33.55 20.41C34.06 18.94 34.34 17.38 34.34 15.75V14.31C35.71 14.63 36.73 15.86 36.73 17.32C36.73 19.04 35.34 20.43 33.62 20.43Z" fill="#D0D5DA"/>
<path d="M33.553 20.408C33.55 20.416 33.547 20.423 33.545 20.431H33.59C33.578 20.423 33.564 20.416 33.553 20.408Z" fill="#E5E8EB"/>
<path d="M33.624 22.823H32.464C31.66 24.234 30.624 25.492 29.407 26.552C29.445 26.752 29.468 26.954 29.468 27.159C29.468 30.186 25.232 32.639 20.006 32.639C14.78 32.639 10.544 30.185 10.544 27.159C10.544 26.953 10.567 26.751 10.605 26.552C8.73 24.919 7.287 22.81 6.46 20.408C3.763 22.222 2.123 24.577 2.123 27.159C2.123 32.879 10.129 37.517 20.005 37.517C29.881 37.517 37.888 32.88 37.888 27.159C37.888 25.423 37.142 23.79 35.839 22.353C35.16 22.653 34.412 22.823 33.624 22.823Z" fill="#E5E8EB"/>
<path d="M34.27 9.94C34.17 9.38 33.98 8.84 33.7 8.32C33.42 7.8 33.05 7.3 32.61 6.83C32.39 6.59 32.15 6.37 31.9 6.14C31.38 5.7 30.79 5.29 30.14 4.92C27.55 3.41 23.97 2.48 20.01 2.48C16.05 2.48 12.46 3.41 9.87 4.92C9.22 5.29 8.64 5.7 8.12 6.14C7.86 6.37 7.62 6.59 7.4 6.83C6.96 7.3 6.6 7.8 6.32 8.32C6.04 8.84 5.84 9.38 5.75 9.94C5.7 10.22 5.67 10.5 5.67 10.79C5.67 10.88 5.69 10.96 5.69 11.05C5.72 11.53 5.8 12 5.96 12.46C6.06 12.73 6.18 13 6.32 13.26C8.13 16.64 13.57 19.09 20.01 19.09C26.45 19.09 31.88 16.64 33.7 13.26C33.84 13 33.96 12.73 34.05 12.46C34.21 12 34.29 11.53 34.32 11.05C34.33 10.96 34.34 10.88 34.34 10.79C34.34 10.5 34.32 10.22 34.27 9.94ZM32.96 11.82C32.77 12.5 32.39 13.15 31.85 13.76C29.73 16.16 25.16 17.87 20.01 17.87C14.86 17.87 10.29 16.16 8.16 13.76C7.36 12.85 6.89 11.84 6.89 10.79C6.89 6.95 12.9 3.7 20.01 3.7C27.12 3.7 33.13 6.95 33.13 10.79C33.13 11.14 33.06 11.48 32.96 11.82Z" fill="#E5E8EB"/>
</g>
<defs>
<clipPath id="clip0_1_211">
<rect width="40" height="40" fill="white"/>
</clipPath>
</defs>
</svg>
