<svg width="40" height="40" viewBox="0 0 40 40" fill="none" xmlns="http://www.w3.org/2000/svg">
<path d="M33.543 20.672H6.458V31.523H33.543V20.672Z" fill="#286251"/>
<path d="M33.543 23.466H6.458V31.522H33.543V23.466Z" fill="#003626"/>
<path d="M26.856 31.522H33.542V33.494C33.542 34.368 32.833 35.077 31.959 35.077H28.44C27.566 35.077 26.857 34.368 26.857 33.494L26.856 31.522Z" fill="#333D4B" fill-opacity="0.7"/>
<path d="M6.458 31.522H13.144V33.494C13.144 34.368 12.435 35.077 11.561 35.077H8.042C7.168 35.077 6.459 34.368 6.459 33.494L6.458 31.522Z" fill="#333D4B" fill-opacity="0.7"/>
<path d="M6.458 20.672L6.517 9.48801H33.482L33.543 20.672" fill="#313D4C" fill-opacity="0.2"/>
<path d="M33.542 9.488V9.451C33.508 7.901 32.242 6.662 30.692 6.662H9.308C7.757 6.662 6.491 7.902 6.459 9.452V9.488" fill="#286251"/>
<path d="M28.62 27.488H11.38C10.724 27.488 10.192 26.957 10.192 26.3C10.192 25.643 10.724 25.112 11.38 25.112H28.619C29.275 25.112 29.807 25.643 29.807 26.3C29.807 26.957 29.275 27.488 28.619 27.488H28.62Z" fill="white"/>
</svg>
